HD DESI ROCKERS RELASAES

Harry Potter and the Philosopher's Stone (released in the United States and India as Harry Potter and the Sorcerer's Stone)[3][4][5] is a 2001 fantasy-adventure film directed by Chris Columbus and based on the novel by J. K. Rowling. The film is the first installment in the popular Harry Potter film series and is written by Steve Kloves and produced by David Heyman. The story follows Harry Potter, a boy who discovers on his eleventh birthday that he is a wizard, and is sent to Hogwarts School of Witchcraft and Wizardry to begin his magical education. The film stars Daniel Radcliffe as Harry Potter, alongside Rupert Grint and Emma Watson as Harry's best friends Ron Weasley and Hermione Granger. The adult cast features Richard Harris, Maggie Smith, Robbie Coltrane, Alan Rickman and Ian Hart.


General
Complete name                    : Harry.Potter.1[Eng-Hindi]Dual.Audio[Brrip]720p-ahl07.mkv
Original name                    : Harry Potter and The Sorcerer's Stone
Format                           : Matroska
File size                        : 780 MiB
Duration                         : 2h 32mn
Overall bit rate                 : 716 Kbps
Writing application              : AVI-Mux GUI 1.17.8.3, Feb 16 201019:42:50
Writing library                  : matroska muxer by Alexander Noe, build date Feb 16 2010

Video
ID                               : 1
Format                           : AVC
Format/Info                      : Advanced Video Codec
Format profile                   : High@L3.1
Format settings, CABAC           : Yes
Format settings, ReFrames        : 5 frames
Muxing mode                      : Container profile=Unknown@3.1
Codec ID                         : V_MPEG4/ISO/AVC
Duration                         : 2h 32mn
Bit rate                         : 466 Kbps
Width                            : 1 280 pixels
Height                           : 528 pixels
Display aspect ratio             : 2.40:1
Frame rate                       : 23.976 fps
Color space                      : YUV
Chroma subsampling               : 4:2:0
Bit depth                        : 8 bits
Scan type                        : Progressive
Bits/(Pixel*Frame)               : 0.029
Stream size                      : 486 MiB (62%)
Writing library                  : x264 core 67 r1139M 1024283
Language                         : English

Audio #1
ID                               : 2
Format                           : MPEG Audio
Format version                   : Version 1
Format profile                   : Layer 3
Mode                             : Joint stereo
Mode extension                   : MS Stereo
Codec ID                         : A_MPEG/L3
Codec ID/Hint                    : MP3
Duration                         : 2h 32mn
Bit rate mode                    : Constant
Bit rate                         : 96.0 Kbps
Channel(s)                       : 2 channels
Sampling rate                    : 48.0 KHz
Stream size                      : 105 MiB (13%)
Language                         : English

Audio #2
ID                               : 3
Format                           : MPEG Audio
Format version                   : Version 1
Format profile                   : Layer 3
Mode                             : Joint stereo
Mode extension                   : MS Stereo
Codec ID                         : A_MPEG/L3
Codec ID/Hint                    : MP3
Duration                         : 2h 32mn
Bit rate mode                    : Constant
Bit rate                         : 160 Kbps
Channel(s)                       : 2 channels
Sampling rate                    : 48.0 KHz
Stream size                      : 174 MiB (22%)
Language                         : Hindi



Seeding Time will be 2:00 AM to 8:00 AM IST
Download and enjoy
Plz seed after Download
Below are Screens



 
http://img80.imageshack.us/img80/1268/75664560.png 
http://img189.imageshack.us/img189/4700/50550983.png 
http://img215.imageshack.us/img215/8710/28705401.png 
http://img651.imageshack.us/img651/1914/47139022.png 
http://img59.imageshack.us/img59/7710/14425586.png 
http://img820.imageshack.us/img820/1523/50531499.png 
http://img46.imageshack.us/img46/1963/11265317.png 
http://img529.imageshack.us/img529/5568/77318026.png 
http://img130.imageshack.us/img130/3696/87634558.png 
http://img188.imageshack.us/img188/5334/20415908.png